# xmcd
#
# Track frame offsets: 
#        150
#        13455
#        24602
#        36552
#        49797
#        65427
#        79130
#        90947
#        103522
#        119785
#        134632
#        148160
#        160695
#        174705
#        187450
#        201847
#        219225
#        233422
#        250972
#        266810
#        283147
#        299757
#        315175
#        329360
#
# Disc length: 4642 seconds
#
# Revision: 0
# Processed by: cddbd v1.5.1PL0 Copyright (c) Steve Scherf et al.
# Submitted via: ExactAudioCopy v0.95a5
#
DISCID=7b122018
DTITLE=Various Artist - Epic 50th Anniversary Collection [CD5]
DYEAR=2003
DGENRE=Country
TTITLE0=David Houston - Almost Persuaded
TTITLE1=Jim and Jesse - Diesel On My Tail
TTITLE2=Tammy Wynette - Stand By Your Man
TTITLE3=Charlie Rich - Behind Closed Doors
TTITLE4=Kris Kristofferson - Why Me
TTITLE5=Billy Swan - I Can Help
TTITLE6=Johnny Paycheck - Take This Job And Shove It
TTITLE7=Joe Stampley - Do You Ever Fool Around
TTITLE8=The Charlie Daniels Band - The Devil Went Down To Georgia
TTITLE9=George Jones - He Stopped Loving Her Today
TTITLE10=Merle Haggard - Big City
TTITLE11=Johnny Rodriguez - Foolin'
TTITLE12=Ronnie McDowell - You're Gonna Ruin My Bad Reputation
TTITLE13=Exile - Give Me One More Chance
TTITLE14=Charly McClain - Radio Heart
TTITLE15=Ricky Skaggs - Country Boy
TTITLE16=Asleep At The Wheel - House Of Blue Lights
TTITLE17=Collin Raye - Love, Me
TTITLE18=Doug Stone - A Jukebox With A Country Song
TTITLE19=Joe Diffie - Pickup Man
TTITLE20=Ty Herndon - What Mattered Most
TTITLE21=Patty Loveless - You Can Feel Bad
TTITLE22=Brad Martin - On The Wings Of A Honky Tonk Angel
TTITLE23=Rodney Crowell - Still Learning How To Fly
EXTD=
EXTT0=
EXTT1=
EXTT2=
EXTT3=
EXTT4=
EXTT5=
EXTT6=
EXTT7=
EXTT8=
EXTT9=
EXTT10=
EXTT11=
EXTT12=
EXTT13=
EXTT14=
EXTT15=
EXTT16=
EXTT17=
EXTT18=
EXTT19=
EXTT20=
EXTT21=
EXTT22=
EXTT23=
PLAYORDER=
